# xmcd CD database file
#
# Track frame offsets:
#	150
#	10708
#	29805
#	49150
#	68052
#	85640
#	118907
#	135893
#	154525
#	180900
#	191128
#
# Disc length: 2790 seconds
#
# Revision: 0
# Processed by: cddbd v1.5.2PL0 Copyright (c) Steve Scherf et al.
# Submitted via: CDex 1.70beta2
#
DISCID=850ae40b
DTITLE=H ZETT M - 5+2=11
DYEAR=2006
DGENRE=Jazz
TTITLE0=名前を書く
TTITLE1=ピアノイズマイライフ
TTITLE2=田園
TTITLE3=君と歩いてく
TTITLE4=バカンス
TTITLE5=腹ヘリ犬～即興ロンド
TTITLE6=サンデー
TTITLE7=呪文
TTITLE8=ベッドルームで飛びはねろ
TTITLE9=あらよっと音頭
TTITLE10=春疾風
EXTD=YEAR: 2006
EXTT0=
EXTT1=
EXTT2=
EXTT3=
EXTT4=
EXTT5=
EXTT6=
EXTT7=
EXTT8=
EXTT9=
EXTT10=
PLAYORDER=
